<?xml version="1.0" encoding="utf-8"?>
<!-- Generator: Adobe Illustrator 26.3.0, SVG Export Plug-In . SVG Version: 6.00 Build 0)  -->
<svg version="1.1" id="Capa_1" xmlns="http://www.w3.org/2000/svg" xmlns:xlink="http://www.w3.org/1999/xlink" x="0px" y="0px"
	 viewBox="0 0 800 400" style="enable-background:new 0 0 800 400;" xml:space="preserve">
<style type="text/css">
	.st0{fill:#EFEFEF;}
	.st1{fill:none;stroke:#FF5722;stroke-width:2.5367;stroke-miterlimit:10;}
	.st2{fill:none;}
	.st3{font-family:'HelveticaNowText-Bold';}
	.st4{font-size:36px;}
</style>
<rect x="9" y="174" class="st0" width="214.5" height="59.3"/>
<line class="st1" x1="12.4" y1="233.3" x2="789.7" y2="233.3"/>
<g>
	<path d="M54.1,271.6c-2.1,0-3.8-0.8-5.2-2.3c-1.3-1.5-2-3.5-2-6c0-2.5,0.7-4.4,2-5.9c1.4-1.5,3.1-2.2,5.2-2.2
		c1.9,0,3.4,0.5,4.6,1.5c1.2,1,1.8,2.3,2,4h-3.1c-0.1-0.9-0.5-1.5-1.1-2c-0.6-0.5-1.3-0.7-2.3-0.7c-1.3,0-2.3,0.5-3.1,1.4
		c-0.7,1-1.1,2.2-1.1,3.9c0,1.7,0.4,3,1.1,4c0.7,1,1.8,1.5,3.1,1.5c0.9,0,1.7-0.3,2.3-0.8c0.6-0.5,0.9-1.2,1-2h3
		c-0.1,1.7-0.8,3.1-1.9,4.1C57.5,271.1,56,271.6,54.1,271.6z"/>
	<path d="M65.6,258.3h-3.1v-2.8h3.1V258.3z M65.6,271.1h-3.1v-11.2h3.1V271.1z"/>
	<path d="M73,271.4c-1.6,0-3-0.5-3.9-1.6c-1-1.1-1.5-2.5-1.5-4.3c0-1.8,0.5-3.3,1.5-4.3c1-1.1,2.3-1.6,3.9-1.6
		c1.4,0,2.6,0.4,3.5,1.1s1.5,1.8,1.7,3.1h-3c-0.3-1.2-1.1-1.8-2.2-1.8c-0.8,0-1.4,0.3-1.8,0.9c-0.4,0.6-0.7,1.5-0.7,2.6
		c0,1.1,0.2,2,0.7,2.6c0.4,0.6,1,0.9,1.8,0.9c1.1,0,1.8-0.6,2.2-1.8h3c-0.2,1.3-0.8,2.4-1.7,3.1C75.6,271,74.4,271.4,73,271.4z"/>
	<path d="M83.2,271.1h-3.1v-15.5h3.1V271.1z"/>
	<path d="M95.1,269.7c-1.1,1.1-2.4,1.7-4.1,1.7c-1.7,0-3.1-0.6-4.1-1.7c-1.1-1.1-1.6-2.5-1.6-4.2c0-1.7,0.5-3.1,1.6-4.3
		c1.1-1.1,2.5-1.7,4.1-1.7c1.7,0,3.1,0.6,4.1,1.7c1.1,1.1,1.6,2.6,1.6,4.3C96.7,267.2,96.1,268.6,95.1,269.7z M88.2,265.5
		c0,1.1,0.3,2,0.8,2.6c0.5,0.6,1.2,1,2,1c0.9,0,1.5-0.3,2-1c0.5-0.6,0.7-1.5,0.7-2.6c0-1.1-0.2-2-0.7-2.6c-0.5-0.6-1.2-1-2-1
		c-0.8,0-1.5,0.3-2,1C88.4,263.5,88.2,264.4,88.2,265.5z"/>
	<path d="M110.4,259.5c1.3,0,2.4,0.5,3.3,1.6c0.9,1.1,1.3,2.5,1.3,4.3c0,1.8-0.5,3.2-1.3,4.4c-0.9,1.1-2.1,1.7-3.5,1.7
		c-1.4,0-2.5-0.6-3.3-1.8l-0.1,1.4h-2.7v-15.5h3.1v5.4C107.9,260,109,259.5,110.4,259.5z M109.5,268.7c0.8,0,1.4-0.3,1.8-0.9
		c0.5-0.6,0.7-1.4,0.7-2.4c0-1-0.2-1.8-0.7-2.4c-0.5-0.6-1.1-0.9-1.8-0.9s-1.4,0.3-1.8,0.9s-0.7,1.4-0.7,2.4c0,1,0.2,1.8,0.7,2.4
		S108.8,268.7,109.5,268.7z"/>
	<path d="M126.9,271.1h-3.1c-0.2-0.7-0.2-1.1-0.2-1.1c-0.8,1-2,1.5-3.5,1.5c-1.2,0-2.1-0.3-2.8-0.9c-0.7-0.6-1.1-1.5-1.1-2.5
		c0-1.8,1.1-2.9,3.4-3.4l3.9-0.8V263c0-0.8-0.6-1.2-1.9-1.2c-0.6,0-1.1,0.1-1.4,0.3c-0.3,0.2-0.5,0.6-0.6,1.1l-2.8,0
		c0.2-2.4,1.8-3.6,4.8-3.6c3.2,0,4.9,1.4,4.9,4.2v5C126.5,269.8,126.7,270.5,126.9,271.1z M121,269.1c0.8,0,1.4-0.2,1.9-0.7
		c0.5-0.5,0.7-1.1,0.7-1.9v-0.8l-2.9,0.6c-1,0.2-1.5,0.7-1.5,1.4c0,0.4,0.2,0.7,0.5,1C120,269,120.5,269.1,121,269.1z M121.1,255.6
		h3.7l-2.7,3.1h-2L121.1,255.6z"/>
	<path d="M137.4,270.5c-0.9,0.7-2.1,1-3.6,1s-2.7-0.3-3.6-1c-0.9-0.7-1.4-1.6-1.5-2.8l2.8-0.1c0.2,1.2,1,1.7,2.4,1.7
		c0.6,0,1.1-0.1,1.5-0.3s0.5-0.5,0.5-0.9c0-0.6-0.5-0.9-1.5-1.1l-2.2-0.4c-2.2-0.4-3.3-1.5-3.3-3.3c0-1.1,0.4-2,1.2-2.7
		c0.8-0.7,1.9-1,3.3-1c1.3,0,2.5,0.3,3.3,1c0.9,0.6,1.4,1.5,1.5,2.6l-2.8,0.1c-0.1-0.5-0.3-0.9-0.7-1.2c-0.4-0.3-0.9-0.4-1.4-0.4
		c-0.5,0-0.9,0.1-1.2,0.3c-0.3,0.2-0.5,0.5-0.5,0.9c0,0.6,0.4,0.9,1.3,1.1l2.4,0.5c1.1,0.2,1.9,0.6,2.5,1.1c0.5,0.5,0.8,1.2,0.8,2.1
		C138.8,268.9,138.3,269.8,137.4,270.5z"/>
	<path d="M143.9,258.3h-3.1v-2.8h3.1V258.3z M143.9,271.1h-3.1v-11.2h3.1V271.1z"/>
	<path d="M151.3,271.4c-1.6,0-3-0.5-3.9-1.6c-1-1.1-1.5-2.5-1.5-4.3c0-1.8,0.5-3.3,1.5-4.3c1-1.1,2.3-1.6,3.9-1.6
		c1.4,0,2.6,0.4,3.5,1.1s1.5,1.8,1.7,3.1h-3c-0.3-1.2-1.1-1.8-2.2-1.8c-0.8,0-1.4,0.3-1.8,0.9c-0.4,0.6-0.7,1.5-0.7,2.6
		c0,1.1,0.2,2,0.7,2.6c0.4,0.6,1,0.9,1.8,0.9c1.1,0,1.8-0.6,2.2-1.8h3c-0.2,1.3-0.8,2.4-1.7,3.1C153.9,271,152.8,271.4,151.3,271.4z
		"/>
	<path d="M167.8,269.7c-1.1,1.1-2.4,1.7-4.1,1.7c-1.7,0-3.1-0.6-4.1-1.7c-1.1-1.1-1.6-2.5-1.6-4.2c0-1.7,0.5-3.1,1.6-4.3
		c1.1-1.1,2.5-1.7,4.1-1.7c1.7,0,3.1,0.6,4.1,1.7c1.1,1.1,1.6,2.6,1.6,4.3C169.4,267.2,168.8,268.6,167.8,269.7z M160.8,265.5
		c0,1.1,0.3,2,0.8,2.6c0.5,0.6,1.2,1,2,1c0.9,0,1.5-0.3,2-1c0.5-0.6,0.7-1.5,0.7-2.6c0-1.1-0.2-2-0.7-2.6c-0.5-0.6-1.2-1-2-1
		c-0.8,0-1.5,0.3-2,1C161.1,263.5,160.8,264.4,160.8,265.5z"/>
	<path d="M87.9,297.2h-3.2v-15.5h3.2V297.2z"/>
	<path d="M106,297.2h-3.1c-0.2-0.7-0.2-1.1-0.2-1.1c-0.8,1-2,1.5-3.5,1.5c-1.2,0-2.1-0.3-2.8-0.9c-0.7-0.6-1.1-1.5-1.1-2.5
		c0-1.8,1.1-2.9,3.4-3.4l3.9-0.8v-0.8c0-0.8-0.6-1.2-1.9-1.2c-0.6,0-1.1,0.1-1.4,0.3c-0.3,0.2-0.5,0.6-0.6,1.1l-2.8,0
		c0.2-2.4,1.8-3.6,4.8-3.6c3.2,0,4.9,1.4,4.9,4.2v5C105.5,295.9,105.7,296.6,106,297.2z M100,295.2c0.8,0,1.4-0.2,1.9-0.7
		c0.5-0.5,0.7-1.1,0.7-1.9v-0.8l-2.9,0.6c-1,0.2-1.5,0.7-1.5,1.4c0,0.4,0.2,0.7,0.5,1C99,295.1,99.5,295.2,100,295.2z"/>
	<path d="M116.9,297.2h-3.2v-15.5h3.2V297.2z"/>
	<path d="M127,288.4l2-6.7h3.4l-5.3,15.5h-3l-5.2-15.5h3.4l2.1,6.7l1.3,5.1L127,288.4z"/>
</g>
<g>
	<path d="M286.7,271.6c-2.1,0-3.8-0.8-5.2-2.3c-1.3-1.5-2-3.5-2-6c0-2.5,0.7-4.4,2-5.9c1.4-1.5,3.1-2.2,5.2-2.2
		c1.9,0,3.4,0.5,4.6,1.5c1.2,1,1.8,2.3,2,4h-3.1c-0.1-0.9-0.5-1.5-1.1-2c-0.6-0.5-1.3-0.7-2.3-0.7c-1.3,0-2.3,0.5-3.1,1.4
		c-0.7,1-1.1,2.2-1.1,3.9c0,1.7,0.4,3,1.1,4c0.7,1,1.8,1.5,3.1,1.5c0.9,0,1.7-0.3,2.3-0.8c0.6-0.5,0.9-1.2,1-2h3
		c-0.1,1.7-0.8,3.1-1.9,4.1C290.2,271.1,288.6,271.6,286.7,271.6z"/>
	<path d="M298.2,258.3h-3.1v-2.8h3.1V258.3z M298.2,271.1h-3.1v-11.2h3.1V271.1z"/>
	<path d="M305.6,271.4c-1.6,0-3-0.5-3.9-1.6c-1-1.1-1.5-2.5-1.5-4.3c0-1.8,0.5-3.3,1.5-4.3c1-1.1,2.3-1.6,3.9-1.6
		c1.4,0,2.6,0.4,3.5,1.1s1.5,1.8,1.7,3.1h-3c-0.3-1.2-1.1-1.8-2.2-1.8c-0.8,0-1.4,0.3-1.8,0.9c-0.4,0.6-0.7,1.5-0.7,2.6
		c0,1.1,0.2,2,0.7,2.6c0.4,0.6,1,0.9,1.8,0.9c1.1,0,1.8-0.6,2.2-1.8h3c-0.2,1.3-0.8,2.4-1.7,3.1C308.2,271,307,271.4,305.6,271.4z"
		/>
	<path d="M315.8,271.1h-3.1v-15.5h3.1V271.1z"/>
	<path d="M327.7,269.7c-1.1,1.1-2.4,1.7-4.1,1.7c-1.7,0-3.1-0.6-4.1-1.7c-1.1-1.1-1.6-2.5-1.6-4.2c0-1.7,0.5-3.1,1.6-4.3
		c1.1-1.1,2.5-1.7,4.1-1.7c1.7,0,3.1,0.6,4.1,1.7c1.1,1.1,1.6,2.6,1.6,4.3C329.3,267.2,328.8,268.6,327.7,269.7z M320.8,265.5
		c0,1.1,0.3,2,0.8,2.6c0.5,0.6,1.2,1,2,1c0.9,0,1.5-0.3,2-1c0.5-0.6,0.7-1.5,0.7-2.6c0-1.1-0.2-2-0.7-2.6c-0.5-0.6-1.2-1-2-1
		c-0.8,0-1.5,0.3-2,1C321,263.5,320.8,264.4,320.8,265.5z"/>
	<path d="M347.4,265.8v0.5h-8.1c0.1,0.8,0.3,1.5,0.8,2c0.5,0.5,1.1,0.7,1.8,0.7c1.1,0,1.8-0.5,2.2-1.5l3,0.2c-0.4,1.2-1,2.1-1.9,2.7
		c-0.9,0.6-2,0.9-3.3,0.9c-1.8,0-3.2-0.6-4.3-1.7c-1-1.1-1.6-2.6-1.6-4.4c0-1.7,0.5-3.1,1.5-4.2c1-1.1,2.3-1.7,4-1.7
		c1.7,0,3.1,0.6,4.2,1.7C346.9,262.4,347.4,263.9,347.4,265.8z M343.5,262.4c-0.4-0.4-1-0.7-1.7-0.7c-0.7,0-1.3,0.2-1.7,0.7
		c-0.5,0.5-0.7,1.1-0.8,1.8h5C344.2,263.5,343.9,262.9,343.5,262.4z"/>
	<path d="M357.8,270.5c-0.9,0.7-2.1,1-3.6,1s-2.7-0.3-3.6-1c-0.9-0.7-1.4-1.6-1.5-2.8l2.8-0.1c0.2,1.2,1,1.7,2.4,1.7
		c0.6,0,1.1-0.1,1.5-0.3s0.5-0.5,0.5-0.9c0-0.6-0.5-0.9-1.5-1.1l-2.2-0.4c-2.2-0.4-3.3-1.5-3.3-3.3c0-1.1,0.4-2,1.2-2.7
		c0.8-0.7,1.9-1,3.3-1c1.3,0,2.5,0.3,3.3,1c0.9,0.6,1.4,1.5,1.5,2.6l-2.8,0.1c-0.1-0.5-0.3-0.9-0.7-1.2c-0.4-0.3-0.9-0.4-1.4-0.4
		c-0.5,0-0.9,0.1-1.2,0.3c-0.3,0.2-0.5,0.5-0.5,0.9c0,0.6,0.4,0.9,1.3,1.1l2.4,0.5c1.1,0.2,1.9,0.6,2.5,1.1c0.5,0.5,0.8,1.2,0.8,2.1
		C359.1,268.9,358.7,269.8,357.8,270.5z"/>
	<path d="M367.5,259.5c1.3,0,2.4,0.5,3.3,1.6c0.9,1.1,1.3,2.5,1.3,4.3c0,1.8-0.4,3.2-1.3,4.4c-0.9,1.1-2.1,1.7-3.5,1.7
		c-1.3,0-2.3-0.5-3-1.4v5.5h-3.1v-15.7h2.7l0.1,1.5C364.8,260.1,365.9,259.5,367.5,259.5z M366.6,268.7c0.8,0,1.4-0.3,1.8-0.9
		c0.5-0.6,0.7-1.4,0.7-2.4c0-1-0.2-1.8-0.7-2.4c-0.5-0.6-1.1-0.9-1.8-0.9s-1.4,0.3-1.8,0.9s-0.7,1.4-0.7,2.4c0,1,0.2,1.8,0.7,2.4
		C365.3,268.4,365.9,268.7,366.6,268.7z"/>
	<path d="M384.8,265.8v0.5h-8.1c0.1,0.8,0.3,1.5,0.8,2c0.5,0.5,1.1,0.7,1.8,0.7c1.1,0,1.8-0.5,2.2-1.5l3,0.2c-0.4,1.2-1,2.1-1.9,2.7
		c-0.9,0.6-2,0.9-3.3,0.9c-1.8,0-3.2-0.6-4.3-1.7c-1-1.1-1.6-2.6-1.6-4.4c0-1.7,0.5-3.1,1.5-4.2c1-1.1,2.3-1.7,4-1.7
		c1.7,0,3.1,0.6,4.2,1.7C384.2,262.4,384.8,263.9,384.8,265.8z M380.8,262.4c-0.4-0.4-1-0.7-1.7-0.7c-0.7,0-1.3,0.2-1.7,0.7
		c-0.5,0.5-0.7,1.1-0.8,1.8h5C381.5,263.5,381.2,262.9,380.8,262.4z"/>
	<path d="M391.6,271.4c-1.6,0-3-0.5-3.9-1.6c-1-1.1-1.5-2.5-1.5-4.3c0-1.8,0.5-3.3,1.5-4.3c1-1.1,2.3-1.6,3.9-1.6
		c1.4,0,2.6,0.4,3.5,1.1s1.5,1.8,1.7,3.1h-3c-0.3-1.2-1.1-1.8-2.2-1.8c-0.8,0-1.4,0.3-1.8,0.9c-0.4,0.6-0.7,1.5-0.7,2.6
		c0,1.1,0.2,2,0.7,2.6c0.4,0.6,1,0.9,1.8,0.9c1.1,0,1.8-0.6,2.2-1.8h3c-0.2,1.3-0.8,2.4-1.7,3.1C394.1,271,393,271.4,391.6,271.4z"
		/>
	<path d="M401.7,258.3h-3.1v-2.8h3.1V258.3z M401.7,271.1h-3.1v-11.2h3.1V271.1z"/>
	<path d="M414.3,271.1h-3.1c-0.2-0.7-0.2-1.1-0.2-1.1c-0.8,1-2,1.5-3.5,1.5c-1.2,0-2.1-0.3-2.8-0.9c-0.7-0.6-1.1-1.5-1.1-2.5
		c0-1.8,1.1-2.9,3.4-3.4l3.9-0.8V263c0-0.8-0.6-1.2-1.9-1.2c-0.6,0-1.1,0.1-1.4,0.3c-0.3,0.2-0.5,0.6-0.6,1.1l-2.8,0
		c0.2-2.4,1.8-3.6,4.8-3.6c3.2,0,4.9,1.4,4.9,4.2v5C413.9,269.8,414,270.5,414.3,271.1z M408.4,269.1c0.8,0,1.4-0.2,1.9-0.7
		c0.5-0.5,0.7-1.1,0.7-1.9v-0.8l-2.9,0.6c-1,0.2-1.5,0.7-1.5,1.4c0,0.4,0.2,0.7,0.5,1C407.4,269,407.8,269.1,408.4,269.1z"/>
	<path d="M419.5,271.1h-3.1v-15.5h3.1V271.1z"/>
	<path d="M425.2,258.3h-3.1v-2.8h3.1V258.3z M425.2,271.1h-3.1v-11.2h3.1V271.1z"/>
	<path d="M436.4,262.3l-5.6,6.2h5.8v2.5H427v-2.5l5.8-6.2h-5.1v-2.5h8.8V262.3z"/>
	<path d="M448.3,271.1h-3.1c-0.2-0.7-0.2-1.1-0.2-1.1c-0.8,1-2,1.5-3.5,1.5c-1.2,0-2.1-0.3-2.8-0.9c-0.7-0.6-1.1-1.5-1.1-2.5
		c0-1.8,1.1-2.9,3.4-3.4l3.9-0.8V263c0-0.8-0.6-1.2-1.9-1.2c-0.6,0-1.1,0.1-1.4,0.3c-0.3,0.2-0.5,0.6-0.6,1.1l-2.8,0
		c0.2-2.4,1.8-3.6,4.8-3.6c3.2,0,4.9,1.4,4.9,4.2v5C447.9,269.8,448,270.5,448.3,271.1z M442.4,269.1c0.8,0,1.4-0.2,1.9-0.7
		c0.5-0.5,0.7-1.1,0.7-1.9v-0.8l-2.9,0.6c-1,0.2-1.5,0.7-1.5,1.4c0,0.4,0.2,0.7,0.5,1C441.4,269,441.8,269.1,442.4,269.1z"/>
	<path d="M457.8,261v-5.4h3.1v15.5h-2.7l-0.1-1.4c-0.8,1.2-1.9,1.8-3.3,1.8c-1.4,0-2.6-0.6-3.5-1.7c-0.9-1.1-1.3-2.6-1.3-4.4
		c0-1.8,0.4-3.2,1.3-4.3c0.9-1.1,2-1.6,3.3-1.6C455.9,259.5,457,260,457.8,261z M455.4,268.7c0.7,0,1.3-0.3,1.8-0.9
		c0.5-0.6,0.7-1.4,0.7-2.4c0-1-0.2-1.8-0.7-2.4c-0.5-0.6-1.1-0.9-1.8-0.9c-0.8,0-1.4,0.3-1.8,0.9c-0.5,0.6-0.7,1.4-0.7,2.4
		c0,1,0.2,1.8,0.7,2.4C454,268.4,454.6,268.7,455.4,268.7z"/>
	<path d="M472.7,269.7c-1.1,1.1-2.4,1.7-4.1,1.7c-1.7,0-3.1-0.6-4.1-1.7c-1.1-1.1-1.6-2.5-1.6-4.2c0-1.7,0.5-3.1,1.6-4.3
		c1.1-1.1,2.5-1.7,4.1-1.7c1.7,0,3.1,0.6,4.1,1.7c1.1,1.1,1.6,2.6,1.6,4.3C474.3,267.2,473.8,268.6,472.7,269.7z M465.8,265.5
		c0,1.1,0.3,2,0.8,2.6c0.5,0.6,1.2,1,2,1c0.9,0,1.5-0.3,2-1c0.5-0.6,0.7-1.5,0.7-2.6c0-1.1-0.2-2-0.7-2.6c-0.5-0.6-1.2-1-2-1
		c-0.8,0-1.5,0.3-2,1C466.1,263.5,465.8,264.4,465.8,265.5z"/>
	<path d="M350.4,288.4l2-6.7h3.4l-5.3,15.5h-3l-5.2-15.5h3.4l2.1,6.7l1.3,5.1L350.4,288.4z"/>
	<path d="M373,297.2h-3.1c-0.2-0.7-0.2-1.1-0.2-1.1c-0.8,1-2,1.5-3.5,1.5c-1.2,0-2.1-0.3-2.8-0.9c-0.7-0.6-1.1-1.5-1.1-2.5
		c0-1.8,1.1-2.9,3.4-3.4l3.9-0.8v-0.8c0-0.8-0.6-1.2-1.9-1.2c-0.6,0-1.1,0.1-1.4,0.3c-0.3,0.2-0.5,0.6-0.6,1.1l-2.8,0
		c0.2-2.4,1.8-3.6,4.8-3.6c3.2,0,4.9,1.4,4.9,4.2v5C372.6,295.9,372.7,296.6,373,297.2z M367.1,295.2c0.8,0,1.4-0.2,1.9-0.7
		c0.5-0.5,0.7-1.1,0.7-1.9v-0.8l-2.9,0.6c-1,0.2-1.5,0.7-1.5,1.4c0,0.4,0.2,0.7,0.5,1C366.1,295.1,366.5,295.2,367.1,295.2z"/>
	<path d="M388,288.4l2-6.7h3.4l-5.3,15.5h-3l-5.2-15.5h3.4l2.1,6.7l1.3,5.1L388,288.4z"/>
	<path d="M398.6,297.2h-3.2v-15.5h3.2V297.2z"/>
	<path d="M404.6,297.2h-3.2v-15.5h3.2V297.2z"/>
	<path d="M410.7,297.2h-3.2v-15.5h3.2V297.2z"/>
</g>
<g>
	<path d="M603.2,271.6c-2.1,0-3.8-0.8-5.2-2.3c-1.3-1.5-2-3.5-2-6c0-2.5,0.7-4.4,2-5.9c1.4-1.5,3.1-2.2,5.2-2.2
		c1.9,0,3.4,0.5,4.6,1.5c1.2,1,1.8,2.3,2,4h-3.1c-0.1-0.9-0.5-1.5-1.1-2c-0.6-0.5-1.3-0.7-2.3-0.7c-1.3,0-2.3,0.5-3.1,1.4
		c-0.7,1-1.1,2.2-1.1,3.9c0,1.7,0.4,3,1.1,4c0.7,1,1.8,1.5,3.1,1.5c0.9,0,1.7-0.3,2.3-0.8c0.6-0.5,0.9-1.2,1-2h3
		c-0.1,1.7-0.8,3.1-1.9,4.1C606.7,271.1,605.1,271.6,603.2,271.6z"/>
	<path d="M614.7,258.3h-3.1v-2.8h3.1V258.3z M614.7,271.1h-3.1v-11.2h3.1V271.1z"/>
	<path d="M622.1,271.4c-1.6,0-3-0.5-3.9-1.6c-1-1.1-1.5-2.5-1.5-4.3c0-1.8,0.5-3.3,1.5-4.3c1-1.1,2.3-1.6,3.9-1.6
		c1.4,0,2.6,0.4,3.5,1.1s1.5,1.8,1.7,3.1h-3c-0.3-1.2-1.1-1.8-2.2-1.8c-0.8,0-1.4,0.3-1.8,0.9c-0.4,0.6-0.7,1.5-0.7,2.6
		c0,1.1,0.2,2,0.7,2.6c0.4,0.6,1,0.9,1.8,0.9c1.1,0,1.8-0.6,2.2-1.8h3c-0.2,1.3-0.8,2.4-1.7,3.1C624.7,271,623.5,271.4,622.1,271.4z
		"/>
	<path d="M632.3,271.1h-3.1v-15.5h3.1V271.1z"/>
	<path d="M644.2,269.7c-1.1,1.1-2.4,1.7-4.1,1.7c-1.7,0-3.1-0.6-4.1-1.7c-1.1-1.1-1.6-2.5-1.6-4.2c0-1.7,0.5-3.1,1.6-4.3
		c1.1-1.1,2.5-1.7,4.1-1.7c1.7,0,3.1,0.6,4.1,1.7c1.1,1.1,1.6,2.6,1.6,4.3C645.8,267.2,645.3,268.6,644.2,269.7z M637.3,265.5
		c0,1.1,0.3,2,0.8,2.6c0.5,0.6,1.2,1,2,1c0.9,0,1.5-0.3,2-1c0.5-0.6,0.7-1.5,0.7-2.6c0-1.1-0.2-2-0.7-2.6c-0.5-0.6-1.2-1-2-1
		c-0.8,0-1.5,0.3-2,1C637.5,263.5,637.3,264.4,637.3,265.5z"/>
	<path d="M659.6,259.5c1.3,0,2.4,0.5,3.3,1.6c0.9,1.1,1.3,2.5,1.3,4.3c0,1.8-0.4,3.2-1.3,4.4c-0.9,1.1-2.1,1.7-3.5,1.7
		c-1.3,0-2.3-0.5-3-1.4v5.5h-3.1v-15.7h2.7l0.1,1.5C656.8,260.1,658,259.5,659.6,259.5z M658.7,268.7c0.8,0,1.4-0.3,1.8-0.9
		c0.5-0.6,0.7-1.4,0.7-2.4c0-1-0.2-1.8-0.7-2.4c-0.5-0.6-1.1-0.9-1.8-0.9s-1.4,0.3-1.8,0.9s-0.7,1.4-0.7,2.4c0,1,0.2,1.8,0.7,2.4
		C657.3,268.4,657.9,268.7,658.7,268.7z"/>
	<path d="M671.6,259.4c0.4,0,0.7,0.1,1,0.2v2.8c-0.4,0-0.6,0-0.6,0c-1.9,0-2.8,1.1-2.8,3.2v5.5h-3.1v-11.2h3l0,1.5
		C669.6,260.1,670.4,259.4,671.6,259.4z"/>
	<path d="M683.6,269.7c-1.1,1.1-2.4,1.7-4.1,1.7c-1.7,0-3.1-0.6-4.1-1.7c-1.1-1.1-1.6-2.5-1.6-4.2c0-1.7,0.5-3.1,1.6-4.3
		c1.1-1.1,2.5-1.7,4.1-1.7c1.7,0,3.1,0.6,4.1,1.7c1.1,1.1,1.6,2.6,1.6,4.3C685.3,267.2,684.7,268.6,683.6,269.7z M676.7,265.5
		c0,1.1,0.3,2,0.8,2.6c0.5,0.6,1.2,1,2,1c0.9,0,1.5-0.3,2-1c0.5-0.6,0.7-1.5,0.7-2.6c0-1.1-0.2-2-0.7-2.6c-0.5-0.6-1.2-1-2-1
		c-0.8,0-1.5,0.3-2,1C677,263.5,676.7,264.4,676.7,265.5z"/>
	<path d="M693,258h-0.8c-0.9,0-1.3,0.4-1.3,1.3v0.6l2.1-0.1v2.3l-2.1-0.1v9h-3.1v-9l-1.6,0.1v-2.3l1.6,0.1v-0.7c0-1.2,0.3-2,0.9-2.7
		c0.6-0.6,1.5-0.9,2.7-0.9h1.6V258z"/>
	<path d="M705.2,265.8v0.5h-8.1c0.1,0.8,0.3,1.5,0.8,2c0.5,0.5,1.1,0.7,1.8,0.7c1.1,0,1.8-0.5,2.2-1.5l3,0.2c-0.4,1.2-1,2.1-1.9,2.7
		c-0.9,0.6-2,0.9-3.3,0.9c-1.8,0-3.2-0.6-4.3-1.7c-1-1.1-1.6-2.6-1.6-4.4c0-1.7,0.5-3.1,1.5-4.2c1-1.1,2.3-1.7,4-1.7
		c1.7,0,3.1,0.6,4.2,1.7C704.7,262.4,705.2,263.9,705.2,265.8z M701.3,262.4c-0.4-0.4-1-0.7-1.7-0.7c-0.7,0-1.3,0.2-1.7,0.7
		c-0.5,0.5-0.7,1.1-0.8,1.8h5C702,263.5,701.7,262.9,701.3,262.4z"/>
	<path d="M715.6,270.5c-0.9,0.7-2.1,1-3.6,1s-2.7-0.3-3.6-1c-0.9-0.7-1.4-1.6-1.5-2.8l2.8-0.1c0.2,1.2,1,1.7,2.4,1.7
		c0.6,0,1.1-0.1,1.5-0.3s0.5-0.5,0.5-0.9c0-0.6-0.5-0.9-1.5-1.1l-2.2-0.4c-2.2-0.4-3.3-1.5-3.3-3.3c0-1.1,0.4-2,1.2-2.7
		c0.8-0.7,1.9-1,3.3-1c1.3,0,2.5,0.3,3.3,1c0.9,0.6,1.4,1.5,1.5,2.6l-2.8,0.1c-0.1-0.5-0.3-0.9-0.7-1.2c-0.4-0.3-0.9-0.4-1.4-0.4
		c-0.5,0-0.9,0.1-1.2,0.3c-0.3,0.2-0.5,0.5-0.5,0.9c0,0.6,0.4,0.9,1.3,1.1l2.4,0.5c1.1,0.2,1.9,0.6,2.5,1.1c0.5,0.5,0.8,1.2,0.8,2.1
		C716.9,268.9,716.5,269.8,715.6,270.5z"/>
	<path d="M722,258.3H719v-2.8h3.1V258.3z M722,271.1H719v-11.2h3.1V271.1z"/>
	<path d="M733.9,269.7c-1.1,1.1-2.4,1.7-4.1,1.7c-1.7,0-3.1-0.6-4.1-1.7c-1.1-1.1-1.6-2.5-1.6-4.2c0-1.7,0.5-3.1,1.6-4.3
		c1.1-1.1,2.5-1.7,4.1-1.7c1.7,0,3.1,0.6,4.1,1.7c1.1,1.1,1.6,2.6,1.6,4.3C735.5,267.2,735,268.6,733.9,269.7z M727,265.5
		c0,1.1,0.3,2,0.8,2.6c0.5,0.6,1.2,1,2,1c0.9,0,1.5-0.3,2-1c0.5-0.6,0.7-1.5,0.7-2.6c0-1.1-0.2-2-0.7-2.6c-0.5-0.6-1.2-1-2-1
		c-0.8,0-1.5,0.3-2,1C727.3,263.5,727,264.4,727,265.5z"/>
	<path d="M743.8,259.5c1.2,0,2.1,0.4,2.7,1.1c0.6,0.7,1,1.7,1,2.9v7.5h-3.1v-6.8c0-0.6-0.1-1.1-0.4-1.4c-0.3-0.3-0.7-0.5-1.2-0.5
		c-0.7,0-1.2,0.2-1.6,0.8c-0.4,0.5-0.6,1.2-0.6,2v6h-3.1v-11.2h3l0,1.5C741.3,260.1,742.4,259.5,743.8,259.5z"/>
	<path d="M760,271.1h-3.1c-0.2-0.7-0.2-1.1-0.2-1.1c-0.8,1-2,1.5-3.5,1.5c-1.2,0-2.1-0.3-2.8-0.9c-0.7-0.6-1.1-1.5-1.1-2.5
		c0-1.8,1.1-2.9,3.4-3.4l3.9-0.8V263c0-0.8-0.6-1.2-1.9-1.2c-0.6,0-1.1,0.1-1.4,0.3c-0.3,0.2-0.5,0.6-0.6,1.1l-2.8,0
		c0.2-2.4,1.8-3.6,4.8-3.6c3.2,0,4.9,1.4,4.9,4.2v5C759.6,269.8,759.7,270.5,760,271.1z M754.1,269.1c0.8,0,1.4-0.2,1.9-0.7
		c0.5-0.5,0.7-1.1,0.7-1.9v-0.8l-2.9,0.6c-1,0.2-1.5,0.7-1.5,1.4c0,0.4,0.2,0.7,0.5,1C753.1,269,753.5,269.1,754.1,269.1z"/>
	<path d="M765.3,271.1h-3.1v-15.5h3.1V271.1z"/>
	<path d="M656.2,297.2H653v-15.5h3.2V297.2z"/>
	<path d="M671.6,281.7l-4.7,7.3l5,8.2h-3.7l-2.5-4.5l-0.6-1.5l-0.7,1.5l-2.5,4.5h-3.7l5.2-8.2l-4.6-7.3h3.6l2,3.6l0.8,1.7l0.8-1.7
		l2.1-3.6H671.6z"/>
	<path d="M689.1,297.2H686c-0.2-0.7-0.2-1.1-0.2-1.1c-0.8,1-2,1.5-3.5,1.5c-1.2,0-2.1-0.3-2.8-0.9c-0.7-0.6-1.1-1.5-1.1-2.5
		c0-1.8,1.1-2.9,3.4-3.4l3.9-0.8v-0.8c0-0.8-0.6-1.2-1.9-1.2c-0.6,0-1.1,0.1-1.4,0.3c-0.3,0.2-0.5,0.6-0.6,1.1l-2.8,0
		c0.2-2.4,1.8-3.6,4.8-3.6c3.2,0,4.9,1.4,4.9,4.2v5C688.7,295.9,688.8,296.6,689.1,297.2z M683.2,295.2c0.8,0,1.4-0.2,1.9-0.7
		c0.5-0.5,0.7-1.1,0.7-1.9v-0.8l-2.9,0.6c-1,0.2-1.5,0.7-1.5,1.4c0,0.4,0.2,0.7,0.5,1C682.2,295.1,682.6,295.2,683.2,295.2z"/>
	<path d="M709.4,281.7l-4.7,7.3l5,8.2h-3.7l-2.5-4.5l-0.6-1.5l-0.7,1.5l-2.5,4.5H696l5.2-8.2l-4.6-7.3h3.6l2,3.6l0.8,1.7l0.8-1.7
		l2.1-3.6H709.4z"/>
</g>
<g>
	<path d="M64.6,181.7h2.1v13.7h7.9v1.9h-10V181.7z"/>
	<path d="M83.5,186.2c0.8,0.4,1.3,0.9,1.7,1.5c0.4,0.6,0.6,1.2,0.8,2c0.1,0.5,0.2,1.4,0.2,2.5h-8.3c0,1.2,0.3,2.1,0.8,2.8
		s1.3,1,2.4,1c1,0,1.8-0.3,2.4-1c0.3-0.4,0.6-0.8,0.7-1.3H86c0,0.4-0.2,0.9-0.5,1.4c-0.3,0.5-0.6,0.9-0.9,1.3
		c-0.6,0.6-1.3,0.9-2.2,1.1c-0.5,0.1-1,0.2-1.6,0.2c-1.4,0-2.6-0.5-3.6-1.5s-1.5-2.5-1.5-4.3c0-1.8,0.5-3.3,1.5-4.5
		c1-1.1,2.3-1.7,3.9-1.7C82,185.7,82.8,185.8,83.5,186.2z M84.2,190.7c-0.1-0.8-0.3-1.5-0.5-2c-0.5-0.9-1.4-1.4-2.6-1.4
		c-0.9,0-1.6,0.3-2.2,1c-0.6,0.6-0.9,1.4-0.9,2.4H84.2z"/>
	<path d="M88.5,185.9h1.8v1.6c0.5-0.7,1.1-1.1,1.7-1.4s1.3-0.4,2-0.4c1.6,0,2.7,0.6,3.3,1.7c0.3,0.6,0.5,1.5,0.5,2.6v7.3h-1.9v-7.2
		c0-0.7-0.1-1.3-0.3-1.7c-0.3-0.7-1-1.1-1.8-1.1c-0.5,0-0.8,0-1.1,0.1c-0.5,0.2-1,0.5-1.4,0.9c-0.3,0.4-0.5,0.8-0.6,1.2
		c-0.1,0.4-0.1,1-0.1,1.7v6h-1.9V185.9z"/>
	<path d="M107,186.4c0.4,0.2,0.7,0.6,1.1,1.1V186h1.8v10.3c0,1.4-0.2,2.6-0.6,3.4c-0.8,1.5-2.3,2.3-4.5,2.3c-1.2,0-2.3-0.3-3.1-0.8
		c-0.8-0.5-1.3-1.4-1.4-2.6h1.9c0.1,0.5,0.3,0.9,0.6,1.2c0.4,0.4,1.1,0.6,2,0.6c1.5,0,2.4-0.5,2.9-1.6c0.3-0.6,0.4-1.7,0.4-3.3
		c-0.4,0.6-0.8,1-1.4,1.3s-1.2,0.4-2.1,0.4c-1.2,0-2.3-0.4-3.2-1.3c-0.9-0.9-1.4-2.3-1.4-4.3c0-1.9,0.5-3.4,1.4-4.5
		c0.9-1.1,2.1-1.6,3.4-1.6C105.6,185.7,106.3,185.9,107,186.4z M107.2,188.4c-0.6-0.7-1.3-1-2.2-1c-1.3,0-2.3,0.6-2.8,1.9
		c-0.3,0.7-0.4,1.6-0.4,2.6c0,1.3,0.3,2.3,0.8,2.9c0.5,0.7,1.2,1,2.1,1c1.4,0,2.3-0.6,2.9-1.9c0.3-0.7,0.5-1.5,0.5-2.5
		C108.1,190.1,107.8,189.1,107.2,188.4z"/>
	<path d="M114.7,185.9v7.6c0,0.6,0.1,1.1,0.3,1.4c0.3,0.7,1,1,1.9,1c1.3,0,2.2-0.6,2.7-1.8c0.3-0.6,0.4-1.5,0.4-2.6v-5.6h1.9v11.4
		h-1.8l0-1.7c-0.2,0.4-0.6,0.8-0.9,1.1c-0.7,0.6-1.6,0.9-2.7,0.9c-1.6,0-2.7-0.5-3.3-1.6c-0.3-0.6-0.5-1.4-0.5-2.3v-7.7H114.7z"/>
	<path d="M130.9,190.4c0.4-0.1,0.7-0.2,0.9-0.6c0.1-0.2,0.1-0.4,0.1-0.7c0-0.7-0.2-1.1-0.7-1.4s-1.1-0.4-2-0.4c-1,0-1.7,0.3-2.1,0.8
		c-0.2,0.3-0.4,0.7-0.5,1.3h-1.8c0-1.4,0.5-2.4,1.4-2.9c0.9-0.5,1.9-0.8,3-0.8c1.3,0,2.4,0.3,3.3,0.8c0.8,0.5,1.2,1.3,1.2,2.4v6.6
		c0,0.2,0,0.4,0.1,0.5c0.1,0.1,0.3,0.2,0.5,0.2c0.1,0,0.2,0,0.3,0s0.2,0,0.3,0v1.4c-0.3,0.1-0.5,0.1-0.7,0.2c-0.2,0-0.4,0-0.6,0
		c-0.7,0-1.1-0.2-1.4-0.7c-0.2-0.2-0.3-0.6-0.3-1.1c-0.4,0.5-0.9,1-1.7,1.3s-1.5,0.6-2.4,0.6c-1.1,0-1.9-0.3-2.6-1s-1-1.4-1-2.4
		c0-1.1,0.3-1.9,1-2.5c0.7-0.6,1.5-0.9,2.6-1.1L130.9,190.4z M126.9,195.6c0.4,0.3,0.9,0.5,1.4,0.5c0.7,0,1.3-0.2,2-0.5
		c1.1-0.5,1.6-1.4,1.6-2.5v-1.5c-0.2,0.1-0.5,0.3-0.9,0.4c-0.4,0.1-0.7,0.2-1.1,0.2l-1.2,0.1c-0.7,0.1-1.2,0.2-1.6,0.4
		c-0.6,0.3-0.9,0.9-0.9,1.6C126.3,194.8,126.5,195.3,126.9,195.6z"/>
	<path d="M135.1,200.2c0.9,0,1.4-0.1,1.5-0.2s0.3-0.5,0.3-1.2V186h1.9v13c0,0.8-0.1,1.4-0.4,1.9c-0.4,0.7-1.3,1-2.5,1
		c-0.1,0-0.2,0-0.3,0s-0.3,0-0.5,0V200.2z M138.9,183.9h-1.9v-2.2h1.9V183.9z"/>
	<path d="M148.9,186.2c0.8,0.4,1.3,0.9,1.7,1.5c0.4,0.6,0.6,1.2,0.8,2c0.1,0.5,0.2,1.4,0.2,2.5h-8.3c0,1.2,0.3,2.1,0.8,2.8
		s1.3,1,2.4,1c1,0,1.8-0.3,2.4-1c0.3-0.4,0.6-0.8,0.7-1.3h1.9c0,0.4-0.2,0.9-0.5,1.4c-0.3,0.5-0.6,0.9-0.9,1.3
		c-0.6,0.6-1.3,0.9-2.2,1.1c-0.5,0.1-1,0.2-1.6,0.2c-1.4,0-2.6-0.5-3.6-1.5s-1.5-2.5-1.5-4.3c0-1.8,0.5-3.3,1.5-4.5
		c1-1.1,2.3-1.7,3.9-1.7C147.3,185.7,148.1,185.8,148.9,186.2z M149.6,190.7c-0.1-0.8-0.3-1.5-0.5-2c-0.5-0.9-1.4-1.4-2.6-1.4
		c-0.9,0-1.6,0.3-2.2,1s-0.9,1.4-0.9,2.4H149.6z"/>
	<path d="M167,185.9h2.1c-0.3,0.7-0.9,2.4-1.8,5c-0.7,2-1.3,3.5-1.7,4.8c-1.1,2.9-1.9,4.7-2.3,5.3s-1.2,1-2.3,1c-0.3,0-0.5,0-0.6,0
		c-0.1,0-0.3-0.1-0.5-0.1v-1.7c0.3,0.1,0.6,0.1,0.7,0.2s0.3,0,0.4,0c0.4,0,0.6-0.1,0.8-0.2s0.3-0.3,0.4-0.4c0-0.1,0.2-0.3,0.4-0.9
		c0.2-0.5,0.4-0.9,0.5-1.2l-4.2-11.7h2.2l3,9.3L167,185.9z"/>
	<path d="M59.5,219.8c0.1,0.6,0.2,1.1,0.5,1.5c0.5,0.6,1.3,0.9,2.5,0.9c0.7,0,1.3-0.2,1.9-0.5c0.5-0.3,0.8-0.8,0.8-1.4
		c0-0.5-0.2-0.9-0.6-1.1c-0.3-0.2-0.8-0.3-1.6-0.5l-1.5-0.4c-1-0.2-1.7-0.5-2.1-0.8c-0.8-0.5-1.2-1.2-1.2-2.1c0-1.1,0.4-1.9,1.2-2.6
		c0.8-0.7,1.8-1,3.1-1c1.7,0,2.9,0.5,3.7,1.5c0.5,0.6,0.7,1.3,0.7,2.1h-1.8c0-0.4-0.2-0.8-0.5-1.2c-0.4-0.5-1.2-0.8-2.3-0.8
		c-0.7,0-1.3,0.1-1.6,0.4c-0.4,0.3-0.6,0.6-0.6,1.1c0,0.5,0.2,0.9,0.7,1.2c0.3,0.2,0.7,0.3,1.3,0.5l1.3,0.3c1.4,0.3,2.3,0.7,2.8,1
		c0.7,0.5,1.1,1.3,1.1,2.3c0,1-0.4,1.9-1.2,2.6s-1.9,1.1-3.5,1.1c-1.7,0-2.9-0.4-3.6-1.2c-0.7-0.8-1.1-1.7-1.1-2.9H59.5z"/>
	<path d="M69.2,207.8h1.9v2.2h-1.9V207.8z M69.2,212.1h1.9v11.3h-1.9V212.1z"/>
	<path d="M80.4,212.5c0.4,0.2,0.7,0.6,1.1,1.1v-1.4h1.8v10.3c0,1.4-0.2,2.6-0.6,3.4c-0.8,1.5-2.3,2.3-4.5,2.3
		c-1.2,0-2.3-0.3-3.1-0.8c-0.8-0.5-1.3-1.4-1.4-2.6h1.9c0.1,0.5,0.3,0.9,0.6,1.2c0.4,0.4,1.1,0.6,2,0.6c1.5,0,2.4-0.5,2.9-1.6
		c0.3-0.6,0.4-1.7,0.4-3.3c-0.4,0.6-0.8,1-1.4,1.3s-1.2,0.4-2.1,0.4c-1.2,0-2.3-0.4-3.2-1.3c-0.9-0.9-1.4-2.3-1.4-4.3
		c0-1.9,0.5-3.4,1.4-4.5c0.9-1.1,2.1-1.6,3.4-1.6C78.9,211.8,79.7,212,80.4,212.5z M80.6,214.5c-0.6-0.7-1.3-1-2.2-1
		c-1.3,0-2.3,0.6-2.8,1.9c-0.3,0.7-0.4,1.6-0.4,2.6c0,1.3,0.3,2.3,0.8,2.9c0.5,0.7,1.2,1,2.1,1c1.4,0,2.3-0.6,2.9-1.9
		c0.3-0.7,0.5-1.5,0.5-2.5C81.5,216.2,81.2,215.2,80.6,214.5z"/>
	<path d="M86.1,212h1.8v1.6c0.5-0.7,1.1-1.1,1.7-1.4c0.6-0.3,1.3-0.4,2-0.4c1.6,0,2.7,0.6,3.3,1.7c0.3,0.6,0.5,1.5,0.5,2.6v7.3h-1.9
		v-7.2c0-0.7-0.1-1.3-0.3-1.7c-0.3-0.7-1-1.1-1.8-1.1c-0.5,0-0.8,0-1.1,0.1c-0.5,0.2-1,0.5-1.4,0.9c-0.3,0.4-0.5,0.8-0.6,1.2
		c-0.1,0.4-0.1,1-0.1,1.7v6h-1.9V212z"/>
	<path d="M98.2,207.8h1.9v2.2h-1.9V207.8z M98.2,212.1h1.9v11.3h-1.9V212.1z"/>
	<path d="M104,208.5c0.4-0.7,1.3-1,2.6-1c0.1,0,0.2,0,0.4,0c0.1,0,0.3,0,0.4,0v1.7c-0.2,0-0.3,0-0.4,0c-0.1,0-0.2,0-0.2,0
		c-0.6,0-0.9,0.2-1,0.5c-0.1,0.3-0.2,1.1-0.2,2.3h1.9v1.5h-1.9v9.8h-1.9v-9.8H102v-1.5h1.6v-1.8C103.6,209.5,103.7,208.9,104,208.5z
		"/>
	<path d="M109.1,207.8h1.9v2.2h-1.9V207.8z M109.1,212.1h1.9v11.3h-1.9V212.1z"/>
	<path d="M121.5,212.6c0.8,0.6,1.3,1.7,1.5,3.2H121c-0.1-0.7-0.4-1.3-0.8-1.7c-0.4-0.5-1.1-0.7-1.9-0.7c-1.2,0-2.1,0.6-2.6,1.8
		c-0.3,0.8-0.5,1.7-0.5,2.9c0,1.1,0.2,2.1,0.7,2.9c0.5,0.8,1.2,1.2,2.3,1.2c0.8,0,1.4-0.2,1.9-0.7s0.8-1.1,1-2h1.9
		c-0.2,1.5-0.7,2.6-1.6,3.3s-1.9,1-3.3,1c-1.5,0-2.7-0.5-3.6-1.6c-0.9-1.1-1.3-2.4-1.3-4.1c0-2,0.5-3.6,1.5-4.7
		c1-1.1,2.2-1.7,3.7-1.7C119.6,211.7,120.7,212,121.5,212.6z"/>
	<path d="M130.9,216.5c0.4-0.1,0.7-0.2,0.9-0.6c0.1-0.2,0.1-0.4,0.1-0.7c0-0.7-0.2-1.1-0.7-1.4s-1.1-0.4-2-0.4c-1,0-1.7,0.3-2.1,0.8
		c-0.2,0.3-0.4,0.7-0.5,1.3h-1.8c0-1.4,0.5-2.4,1.4-2.9c0.9-0.5,1.9-0.8,3-0.8c1.3,0,2.4,0.3,3.3,0.8c0.8,0.5,1.2,1.3,1.2,2.4v6.6
		c0,0.2,0,0.4,0.1,0.5c0.1,0.1,0.3,0.2,0.5,0.2c0.1,0,0.2,0,0.3,0s0.2,0,0.3,0v1.4c-0.3,0.1-0.5,0.1-0.7,0.2c-0.2,0-0.4,0-0.6,0
		c-0.7,0-1.1-0.2-1.4-0.7c-0.2-0.2-0.3-0.6-0.3-1.1c-0.4,0.5-0.9,1-1.7,1.3s-1.5,0.6-2.4,0.6c-1.1,0-1.9-0.3-2.6-1s-1-1.4-1-2.4
		c0-1.1,0.3-1.9,1-2.5c0.7-0.6,1.5-0.9,2.6-1.1L130.9,216.5z M126.9,221.7c0.4,0.3,0.9,0.5,1.4,0.5c0.7,0,1.3-0.2,2-0.5
		c1.1-0.5,1.6-1.4,1.6-2.5v-1.5c-0.2,0.1-0.5,0.3-0.9,0.4c-0.4,0.1-0.7,0.2-1.1,0.2l-1.2,0.1c-0.7,0.1-1.2,0.2-1.6,0.4
		c-0.6,0.3-0.9,0.9-0.9,1.6C126.3,220.9,126.5,221.4,126.9,221.7z"/>
	<path d="M144.4,212.6c0.8,0.6,1.3,1.7,1.5,3.2H144c-0.1-0.7-0.4-1.3-0.8-1.7c-0.4-0.5-1.1-0.7-1.9-0.7c-1.2,0-2.1,0.6-2.6,1.8
		c-0.3,0.8-0.5,1.7-0.5,2.9c0,1.1,0.2,2.1,0.7,2.9c0.5,0.8,1.2,1.2,2.3,1.2c0.8,0,1.4-0.2,1.9-0.7s0.8-1.1,1-2h1.9
		c-0.2,1.5-0.7,2.6-1.6,3.3s-1.9,1-3.3,1c-1.5,0-2.7-0.5-3.6-1.6c-0.9-1.1-1.3-2.4-1.3-4.1c0-2,0.5-3.6,1.5-4.7
		c1-1.1,2.2-1.7,3.7-1.7C142.6,211.7,143.6,212,144.4,212.6z"/>
	<path d="M147.8,207.8h1.9v2.2h-1.9V207.8z M147.8,212.1h1.9v11.3h-1.9V212.1z"/>
	<path d="M160.9,213.2c1,1,1.5,2.4,1.5,4.3c0,1.8-0.4,3.3-1.3,4.5c-0.9,1.2-2.3,1.8-4.2,1.8c-1.6,0-2.8-0.5-3.7-1.6
		c-0.9-1.1-1.4-2.5-1.4-4.3c0-1.9,0.5-3.4,1.5-4.6c1-1.1,2.3-1.7,3.9-1.7C158.7,211.7,159.9,212.2,160.9,213.2z M159.7,220.7
		c0.5-1,0.7-2,0.7-3.2c0-1.1-0.2-1.9-0.5-2.6c-0.5-1-1.5-1.6-2.8-1.6c-1.2,0-2,0.4-2.5,1.3s-0.8,2-0.8,3.2c0,1.2,0.3,2.2,0.8,3
		c0.5,0.8,1.4,1.2,2.5,1.2C158.4,222.2,159.3,221.7,159.7,220.7z M159.4,207.4l-2.8,3.1h-1.5l1.9-3.1H159.4z"/>
	<path d="M164.7,212h1.8v1.6c0.5-0.7,1.1-1.1,1.7-1.4c0.6-0.3,1.3-0.4,2-0.4c1.6,0,2.7,0.6,3.3,1.7c0.3,0.6,0.5,1.5,0.5,2.6v7.3
		h-1.9v-7.2c0-0.7-0.1-1.3-0.3-1.7c-0.3-0.7-1-1.1-1.8-1.1c-0.5,0-0.8,0-1.1,0.1c-0.5,0.2-1,0.5-1.4,0.9c-0.3,0.4-0.5,0.8-0.6,1.2
		c-0.1,0.4-0.1,1-0.1,1.7v6h-1.9V212z"/>
</g>
<g>
	<rect x="14.5" y="39.3" class="st2" width="494.2" height="70.2"/>
	<text transform="matrix(1 0 0 1 14.4557 64.9616)" class="st3 st4">Asignaturas impartidas</text>
</g>
</svg>
